<?xml version="1.0" encoding="utf-8"?>
<!DOCTYPE svg PUBLIC "-//W3C//DTD SVG 1.0//EN" "http://www.w3.org/TR/2001/REC-SVG-20010904/DTD/svg10.dtd">
<svg version="1.0" xmlns="http://www.w3.org/2000/svg" width="1772px" height="1772px" viewBox="0 0 1772 1772" preserveAspectRatio="xMidYMid meet">
 <g fill="#1b181a">
  <path d="M521.4 1522.6 c-13.8 -3.2 -28.4 -10.9 -38.6 -20.4 -10.1 -9.4 -19.1 -24.9 -22.5 -38.9 -3.7 -15.4 -4.1 -12.3 28.1 -210.1 16.3 -100.3 29.6 -184.8 29.6 -187.8 0 -12 8.8 -2.9 -141.4 -146.9 -75.4 -72.3 -138.6 -133.5 -140.3 -135.9 -1.8 -2.5 -4.6 -7.2 -6.3 -10.5 -11.6 -22.8 -11.8 -47.2 -0.5 -70.6 9.4 -19.5 25.7 -33.6 46.5 -40.4 3.9 -1.2 79 -13.3 190.4 -30.6 101.2 -15.7 185.6 -29 187.6 -29.5 4.4 -1.2 11.3 -6 13.6 -9.5 0.9 -1.4 37.1 -76 80.4 -165.8 43.2 -89.8 80.2 -166.2 82 -169.9 10.1 -20.2 28.4 -35 50.5 -40.9 10.2 -2.8 27.8 -3 37.8 -0.6 19.7 4.8 38 18 48.4 34.9 2.1 3.3 41.2 80.4 86.9 171.2 45.8 90.8 84.6 166.7 86.3 168.7 1.7 2 5 4.6 7.3 5.8 3.5 1.6 40.9 7 190.9 27.6 122.1 16.7 189 26.2 193.5 27.6 14.4 4.4 28.8 14.1 38 25.7 6.3 8 14 24 15.8 33.4 4.3 21.1 -0.3 43.4 -12.3 60.5 -4.5 6.2 -55 57 -224.4 225.3 -25.8 25.6 -48 48.4 -49.4 50.7 -5 8.5 -6.2 0.4 29.8 198.8 30.8 170.3 33.1 183.8 33.2 194.5 0 20.9 -6.6 37.8 -20.8 52.9 -10.7 11.4 -22 18.3 -37.6 22.7 -8.2 2.4 -10.2 2.6 -22.2 2.2 -10.5 -0.4 -14.8 -1 -20.7 -3 -4.4 -1.4 -76.5 -38 -173.5 -87.9 -91.3 -47.1 -167.5 -86.1 -169.4 -86.7 -4.5 -1.6 -12 -1.5 -16.7 0.2 -2.2 0.7 -75.4 39.8 -162.9 86.8 -87.4 47.1 -162.1 87.1 -166 89.1 -11.9 5.9 -19.6 7.9 -33 8.3 -7.9 0.2 -14.1 -0.1 -18.1 -1z m20.6 -55.9 c1.9 -0.7 76.2 -40.4 165 -88.2 88.8 -47.7 164.2 -88.1 167.5 -89.7 3.4 -1.5 9.8 -3.7 14.5 -4.9 7.3 -1.9 10.3 -2.1 23.4 -1.7 12.8 0.4 16.3 0.9 23.2 3.2 5.4 1.7 66.2 32.5 174.5 88.3 91.5 47.1 168 86.1 169.9 86.7 9.9 2.6 22.6 -6.1 25.8 -17.8 0.9 -3.2 -3.5 -29 -32.4 -188.9 l-33.5 -185.2 0.5 -13.5 c0.3 -7.8 1.2 -16.1 2.1 -19.5 2.2 -8 8.5 -20.9 13.4 -27.5 2.2 -3 63.8 -64.7 136.8 -137.2 137.9 -136.8 138.3 -137.2 138.3 -145.2 0 -7.4 -7.6 -17.9 -15.3 -21.1 -2 -0.8 -23.4 -4.2 -47.5 -7.5 -24 -3.3 -108.1 -14.7 -186.7 -25.5 -151.7 -20.6 -149.9 -20.3 -163.5 -27.6 -8.3 -4.4 -18.4 -13.1 -24.4 -21.1 -3.7 -4.8 -28.6 -53.3 -89.6 -174.4 -92.9 -184.5 -88 -175.5 -98.8 -178.8 -3.6 -1 -6.1 -1.2 -8.3 -0.6 -4.8 1.4 -11.6 5.7 -13.7 8.8 -1.1 1.5 -38.5 78.4 -83.1 170.9 -44.6 92.6 -82.3 170.2 -83.7 172.5 -10 16 -28.2 29.6 -45.9 34.2 -4.9 1.3 -171.2 27.2 -343.2 53.6 -34.2 5.2 -37.2 6 -42.9 12.2 -6.9 7.2 -8.6 14.2 -5.4 21.7 2 4.6 17.3 19.5 139.9 137.1 104.7 100.5 138.6 133.5 141.9 138.5 9.5 14.4 13.2 27.4 13.2 46.8 0 13.4 -3.6 36.3 -50.9 325.9 -6.4 38.8 -8.7 55.5 -8.2 57.6 2.1 7.2 7.3 13.3 14.6 17 4.6 2.4 7.6 2.6 12.5 0.9z"/>
 </g>
 <g fill="#f9a72b">
  <path d="M526.5 1468.8 c-8.4 -4.3 -14 -11.8 -15.1 -20 -0.4 -2.9 2.3 -22.1 8.5 -60.3 5 -30.8 9.3 -56.6 9.6 -57.2 0.8 -2.4 4 -1.2 8.3 3.1 5.2 5.1 12.8 9.9 20.8 12.9 5 1.8 7.8 2.2 18.4 2.1 10.3 0 17.1 -0.8 39 -4.7 65.9 -11.7 58.2 -8.7 172.7 -66.3 51.7 -26 100.8 -50.2 109 -53.7 30.1 -13.1 51.4 -18.5 75.6 -19.4 19.3 -0.7 30.4 0.6 44.4 5.2 16.7 5.6 21.4 8.3 65.3 38.5 24.3 16.8 38.6 22.7 57.5 23.7 32.7 1.7 55.4 -16.8 55.5 -45.2 0 -3.3 -1.1 -15.7 -2.5 -27.5 -5.1 -44.1 -8.9 -86.2 -12.1 -136.5 -4.7 -73.5 3.6 -107.3 34.3 -139.5 12.6 -13.3 19.3 -18.8 101.8 -83.5 79 -62.1 91.5 -72.2 98.7 -80.7 18.6 -21.8 21.4 -39.9 9.7 -61.5 -4.8 -8.8 -5 -11.1 -1.1 -10.6 33.3 4.1 91.1 12.7 94 13.8 13 5.5 19.2 22.8 12.5 35.4 -2.2 4 -33.7 35.8 -135.6 136.9 -73 72.5 -134.6 134.2 -136.8 137.2 -5 6.6 -11.2 19.5 -13.4 27.5 -0.8 3.3 -1.8 10.5 -2.1 16 -0.6 9.9 -0.3 11.9 33.1 196.5 25.2 139.3 33.5 187.6 33.1 190.8 -0.8 6 -3.3 10.9 -7.9 15.3 -5.4 5.3 -11 7.2 -19.4 6.7 -6.8 -0.4 -6.9 -0.4 -174.2 -86.6 -110.8 -57.1 -170.1 -87.1 -175.5 -88.8 -11.8 -3.8 -28.9 -4.5 -40.6 -1.5 -4.6 1.2 -11.1 3.4 -14.5 4.9 -3.3 1.6 -78.7 42 -167.5 89.7 -88.8 47.8 -163.1 87.5 -165 88.2 -5.4 1.9 -13.9 1.5 -18.5 -0.9z"/>
  <path d="M413.9 881 c-150.8 -144.5 -140.7 -133.8 -139.7 -146.5 0.8 -9.6 6.2 -17.7 14.6 -21.9 2.9 -1.5 62.9 -11.6 68.8 -11.6 1.7 0 2.4 0.9 3.3 4.8 15.7 63.3 30.8 87 94.6 148.3 33.1 31.8 49.9 49.6 61.9 65.6 21.2 28.1 31 52.1 32.3 79.1 0.3 6.7 0.4 12.2 0.2 12.2 -0.3 0 -61.5 -58.5 -136 -130z"/>
 </g>
 <g fill="#f8ed48">
  <path d="M560 1351.6 c-10.2 -2.9 -18.5 -7.8 -26.6 -15.4 l-4.1 -3.8 20.8 -128.5 c22.8 -140.6 22.8 -140.3 18.9 -156.5 -3.2 -13.3 -9.8 -26.1 -18.5 -35.4 -3.1 -3.3 -3.3 -4 -3.9 -13 -2 -32.4 -19.3 -65 -54.2 -102.2 -7.1 -7.5 -25 -25.4 -39.9 -39.7 -40.7 -39.1 -58.1 -59.5 -71.8 -84.2 -4.6 -8.2 -11.7 -25.1 -14.5 -34.5 -3.2 -10.5 -10.2 -36.7 -9.9 -37 0.1 -0.1 68.8 -10.8 152.7 -23.8 83.9 -13 155.2 -24.3 158.5 -25.2 17.7 -4.6 35.9 -18.2 45.9 -34.2 1.4 -2.3 39.1 -79.9 83.7 -172.5 44.6 -92.5 82.1 -169.6 83.4 -171.2 2.9 -3.9 11.1 -8.3 16.7 -9.1 2.9 -0.4 6.5 0 10.3 1 11.6 3.4 5.9 -6.9 99.5 179 61 121.1 85.9 169.6 89.6 174.4 6 8 16.1 16.7 24.4 21.1 13.5 7.2 12 7 160 27.1 76.7 10.5 140.5 19.3 141.7 19.5 2.7 0.6 8.7 11 11.4 19.7 2.8 8.8 2.6 23.3 -0.4 31.8 -4.5 12.6 -13.3 24.2 -28.6 37.3 -5.3 4.6 -43.3 34.8 -84.6 67.2 -41.2 32.3 -79.1 62.3 -84.1 66.6 -45.6 39.1 -57 71.9 -52 150.4 3.2 50.3 7 92.4 12.1 136.5 3.9 33.9 3.2 45.2 -3.6 56.6 -9.5 15.8 -26.7 23.1 -52.4 22.1 -21.8 -0.8 -34.7 -5.9 -60.5 -23.7 -43.9 -30.2 -48.6 -32.9 -65.3 -38.5 -31.7 -10.4 -67.4 -6 -114 14.2 -8.2 3.5 -57.3 27.7 -109 53.7 -114.5 57.5 -106.9 54.6 -172.2 66.2 -29.1 5.1 -50.6 6.6 -59.5 4z m40.7 -54.7 c4.6 -1.7 7.3 -4.9 12.3 -14.9 7.6 -15.2 10.7 -25.6 17.1 -57.5 3.3 -16.4 7.6 -36.2 9.5 -44 6.7 -27.2 7.9 -41.4 4.5 -52.4 -3.6 -11.7 -11.6 -18.2 -19.5 -16 -5.8 1.6 -14.3 10.8 -19.8 21.5 -6.2 11.9 -9.7 24.9 -16.4 59.9 -10.9 57.5 -11.4 65.6 -6.3 91.2 1.1 5.6 4.3 9.7 9.4 11.9 3.7 1.6 5.6 1.7 9.2 0.3z m-141.1 -530.1 c6.1 -2.8 12.1 -8.9 13.5 -13.9 3.2 -10.6 -9.5 -28.1 -22.2 -30.3 -11.6 -2 -27.1 11.5 -27.1 23.7 0.1 7.9 5 16.3 12 20.4 7.8 4.6 14.2 4.6 23.8 0.1z m880.2 -5.4 c4.2 -0.8 9.3 -2.3 11.2 -3.3 4.5 -2.3 7.6 -7.7 6.6 -11.7 -1.7 -6.5 -16.8 -16.7 -32 -21.3 -8.5 -2.6 -62.2 -14.1 -82.2 -17.7 -8.2 -1.4 -19.7 -2.8 -25.6 -3.1 -10.5 -0.6 -10.9 -0.5 -14.9 2.1 -5.5 3.7 -9.3 11.6 -7.9 16.7 1.4 4.9 5.2 8.2 14.4 12.4 18.4 8.4 41.3 14.9 75.2 21.4 34.9 6.7 41.7 7.3 55.2 4.5z m-714.3 -12.4 c10.5 -1 24.4 -2.4 31 -3 23 -2.2 58.8 -7 69.5 -9.4 24.7 -5.6 43.7 -19.2 56.2 -40.3 8.5 -14.4 19.3 -41.4 21.3 -53.1 0.4 -2.7 3.8 -9.4 9.2 -18.5 19.2 -31.8 26.1 -44.9 58.6 -112.2 8 -16.5 16.2 -32.9 18.2 -36.5 16 -28.1 23.1 -49.2 20.6 -60.5 -2.2 -9.7 -9.3 -18.1 -17.1 -20.3 -3.8 -1 -8.8 0.1 -14.8 3.2 -5 2.6 -17.2 15.1 -22 22.6 -4.9 7.5 -55 105.9 -64.2 126 -13.2 28.8 -28.8 70.4 -31.5 84 -0.8 3.7 -8.1 18.2 -17.1 33.6 -8.9 15.2 -13 17.5 -35.2 19.4 -19.5 1.6 -107 12.6 -124.3 15.5 -24.7 4.3 -41.8 11.8 -48.1 21.3 -7.9 11.8 -0.1 24.6 18.2 29.9 6.2 1.8 46.4 0.9 71.5 -1.7z"/>
 </g>
 <g fill="#ffffff">
  <path d="M588.5 1299.6 c-3.7 -1.7 -7.4 -5.1 -8.5 -8 -1.9 -5.1 -4.2 -23.9 -4.2 -34.6 0.1 -13.1 1.8 -24.8 9.6 -66.5 6.7 -35 10.2 -48 16.4 -59.9 9.7 -18.8 21.7 -26.2 33.8 -20.7 8.8 4 13.4 14.8 13.4 31.4 0 12 -1.7 23.1 -6.4 42.2 -1.9 7.8 -6.2 27.6 -9.5 44 -6.4 31.9 -9.5 42.3 -17.1 57.5 -5 10 -7.7 13.2 -12.3 14.9 -3.9 1.5 -11.6 1.3 -15.2 -0.3z"/>
  <path d="M440.3 773.1 c-12 -3.1 -19.9 -13.9 -19.7 -27.1 0.1 -16.3 14.5 -28.6 31.2 -26.6 7.6 0.9 13.4 4.5 18.6 11.6 9.9 13.4 8.5 28.6 -3.2 36.2 -7.9 5.2 -19.6 7.7 -26.9 5.9z"/>
  <path d="M1308.5 764.8 c-13.9 -2.1 -48.8 -9.2 -60.9 -12.3 -23.5 -6.1 -46.4 -15 -51.9 -20.2 -5.1 -5 -6 -13 -2.3 -20.9 2.5 -5.4 6.5 -8.9 11.8 -10.4 4.2 -1.3 22.7 0.3 41.2 3.5 19.3 3.3 73.5 14.9 82.2 17.6 15.9 4.9 30.2 14.7 32.2 22.1 1.9 6.9 -1.1 14.3 -7 17.1 -8.9 4.2 -30.2 5.8 -45.3 3.5z"/>
  <path d="M551 753.7 c-15.4 -4.4 -23.3 -14.2 -21.6 -26.5 2 -15 19 -25.1 51.5 -30.7 17.3 -2.9 104.8 -13.9 124.3 -15.5 22.2 -1.9 26.3 -4.2 35.2 -19.4 9 -15.4 16.3 -29.9 17.1 -33.6 2.7 -13.6 18.3 -55.2 31.5 -84 9.2 -20.1 59.3 -118.5 64.2 -126 5.1 -7.9 17.2 -20.1 22.6 -22.9 14.6 -7.5 28 -3.5 34.8 10.4 7.6 15.6 2 38.1 -18.1 73.5 -2 3.6 -10.2 20 -18.2 36.5 -32.5 67.3 -39.4 80.4 -58.6 112.2 -5.4 9.1 -8.8 15.8 -9.2 18.5 -2 11.7 -12.8 38.7 -21.3 53.1 -12.5 21.1 -31.5 34.7 -56.2 40.3 -10.7 2.4 -46.5 7.2 -69.5 9.4 -6.6 0.6 -20.7 2 -31.3 3.1 -24.9 2.5 -70.8 3.5 -77.2 1.6z"/>
 </g>
</svg>